<?xml version="1.0" encoding="UTF-8"?>
<svg width="24px" height="24px" viewBox="0 0 24 24" version="1.1" xmlns="http://www.w3.org/2000/svg">
    <g stroke="none" stroke-width="1" fill="none" fill-rule="evenodd">
        <path d="M12,2 C17.5228475,2 22,6.4771525 22,12 C22,17.5228475 17.5228475,22 12,22 C6.4771525,22 2,17.5228475 2,12 C2,6.4771525 6.4771525,2 12,2 Z" fill="#FFB761"/>
        <circle fill="#8B4513" cx="9" cy="10" r="1.5"/>
        <circle fill="#8B4513" cx="15" cy="10" r="1.5"/>
        <path d="M12,14 C13.5,14 15,15 15,16 C15,17 13.5,18 12,18 C10.5,18 9,17 9,16 C9,15 10.5,14 12,14 Z" fill="#8B4513"/>
    </g>
</svg> 